REM DIRINDEX 1\2,1\3,1\4,1\5\6,1\5\7,1\8
REM DIRNAME folder01,folder02,folder03,folder04,folder05,folder06,folder07,folder08
TITLE ""
FILE "060 Åy060ÅzUnit4 (0673 brisk_0684 treacherous).mp3" MP3
  TRACK 01 AUDIO
    TITLE "0:"
    INDEX 01 00:00:00
  TRACK 02 AUDIO
    TITLE "2:cjc115_2362"
    INDEX 01 00:00:05
  TRACK 03 AUDIO
    TITLE "0:"
    INDEX 01 00:01:17
  TRACK 04 AUDIO
    TITLE "3:cjc115_2363"
    INDEX 01 00:01:24
  TRACK 05 AUDIO
    TITLE "0:"
    INDEX 01 00:03:55
  TRACK 06 AUDIO
    TITLE "4:cjc115_2364"
    INDEX 01 00:03:63
  TRACK 07 AUDIO
    TITLE "0:"
    INDEX 01 00:06:69
  TRACK 08 AUDIO
    TITLE "2:cjc115_2365"
    INDEX 01 00:08:01
  TRACK 09 AUDIO
    TITLE "0:"
    INDEX 01 00:09:10
  TRACK 10 AUDIO
    TITLE "3:cjc115_2366"
    INDEX 01 00:09:18
  TRACK 11 AUDIO
    TITLE "0:"
    INDEX 01 00:11:42
  TRACK 12 AUDIO
    TITLE "4:cjc115_2367"
    INDEX 01 00:11:50
  TRACK 13 AUDIO
    TITLE "0:"
    INDEX 01 00:15:44
  TRACK 14 AUDIO
    TITLE "2:cjc115_2368"
    INDEX 01 00:16:48
  TRACK 15 AUDIO
    TITLE "0:"
    INDEX 01 00:17:65
  TRACK 16 AUDIO
    TITLE "3:cjc115_2369"
    INDEX 01 00:18:01
  TRACK 17 AUDIO
    TITLE "0:"
    INDEX 01 00:19:56
  TRACK 18 AUDIO
    TITLE "4:cjc115_2370"
    INDEX 01 00:19:63
  TRACK 19 AUDIO
    TITLE "0:"
    INDEX 01 00:24:27
  TRACK 20 AUDIO
    TITLE "2:cjc115_2371"
    INDEX 01 00:25:37
  TRACK 21 AUDIO
    TITLE "0:"
    INDEX 01 00:27:00
  TRACK 22 AUDIO
    TITLE "3:cjc115_2372"
    INDEX 01 00:27:12
  TRACK 23 AUDIO
    TITLE "0:"
    INDEX 01 00:28:51
  TRACK 24 AUDIO
    TITLE "4:cjc115_2373"
    INDEX 01 00:28:59
  TRACK 25 AUDIO
    TITLE "0:"
    INDEX 01 00:32:25
  TRACK 26 AUDIO
    TITLE "2:cjc115_2374"
    INDEX 01 00:33:34
  TRACK 27 AUDIO
    TITLE "0:"
    INDEX 01 00:34:73
  TRACK 28 AUDIO
    TITLE "3:cjc115_2375"
    INDEX 01 00:35:06
  TRACK 29 AUDIO
    TITLE "0:"
    INDEX 01 00:37:20
  TRACK 30 AUDIO
    TITLE "4:cjc115_2376"
    INDEX 01 00:37:26
  TRACK 31 AUDIO
    TITLE "0:"
    INDEX 01 00:42:12
  TRACK 32 AUDIO
    TITLE "2:cjc115_2377"
    INDEX 01 00:43:21
  TRACK 33 AUDIO
    TITLE "0:"
    INDEX 01 00:44:50
  TRACK 34 AUDIO
    TITLE "3:cjc115_2378"
    INDEX 01 00:44:60
  TRACK 35 AUDIO
    TITLE "0:"
    INDEX 01 00:45:67
  TRACK 36 AUDIO
    TITLE "4:cjc115_2379"
    INDEX 01 00:46:02
  TRACK 37 AUDIO
    TITLE "0:"
    INDEX 01 00:51:63
  TRACK 38 AUDIO
    TITLE "2:cjc115_2380"
    INDEX 01 00:52:71
  TRACK 39 AUDIO
    TITLE "0:"
    INDEX 01 00:54:09
  TRACK 40 AUDIO
    TITLE "3:cjc115_2381"
    INDEX 01 00:54:19
  TRACK 41 AUDIO
    TITLE "0:"
    INDEX 01 00:55:18
  TRACK 42 AUDIO
    TITLE "4:cjc115_2382"
    INDEX 01 00:55:26
  TRACK 43 AUDIO
    TITLE "0:"
    INDEX 01 00:59:51
  TRACK 44 AUDIO
    TITLE "2:cjc115_2383"
    INDEX 01 01:00:60
  TRACK 45 AUDIO
    TITLE "0:"
    INDEX 01 01:02:24
  TRACK 46 AUDIO
    TITLE "3:cjc115_2384"
    INDEX 01 01:02:34
  TRACK 47 AUDIO
    TITLE "0:"
    INDEX 01 01:04:43
  TRACK 48 AUDIO
    TITLE "4:cjc115_2385"
    INDEX 01 01:04:52
  TRACK 49 AUDIO
    TITLE "0:"
    INDEX 01 01:08:27
  TRACK 50 AUDIO
    TITLE "2:cjc115_2386"
    INDEX 01 01:09:32
  TRACK 51 AUDIO
    TITLE "0:"
    INDEX 01 01:11:05
  TRACK 52 AUDIO
    TITLE "3:cjc115_2387"
    INDEX 01 01:11:13
  TRACK 53 AUDIO
    TITLE "0:"
    INDEX 01 01:12:46
  TRACK 54 AUDIO
    TITLE "4:cjc115_2388"
    INDEX 01 01:12:52
  TRACK 55 AUDIO
    TITLE "0:"
    INDEX 01 01:17:35
  TRACK 56 AUDIO
    TITLE "2:cjc115_2389"
    INDEX 01 01:18:47
  TRACK 57 AUDIO
    TITLE "0:"
    INDEX 01 01:19:52
  TRACK 58 AUDIO
    TITLE "3:cjc115_2390"
    INDEX 01 01:19:58
  TRACK 59 AUDIO
    TITLE "0:"
    INDEX 01 01:21:43
  TRACK 60 AUDIO
    TITLE "4:cjc115_2391"
    INDEX 01 01:21:51
  TRACK 61 AUDIO
    TITLE "0:"
    INDEX 01 01:24:51
  TRACK 62 AUDIO
    TITLE "2:cjc115_2392"
    INDEX 01 01:25:60
  TRACK 63 AUDIO
    TITLE "0:"
    INDEX 01 01:27:06
  TRACK 64 AUDIO
    TITLE "3:cjc115_2393"
    INDEX 01 01:27:14
  TRACK 65 AUDIO
    TITLE "0:"
    INDEX 01 01:29:39
  TRACK 66 AUDIO
    TITLE "4:cjc115_2394"
    INDEX 01 01:29:46
  TRACK 67 AUDIO
    TITLE "0:"
    INDEX 01 01:34:10
  TRACK 68 AUDIO
    TITLE "2:cjc115_2395"
    INDEX 01 01:35:18
  TRACK 69 AUDIO
    TITLE "0:"
    INDEX 01 01:36:43
  TRACK 70 AUDIO
    TITLE "3:cjc115_2396"
    INDEX 01 01:36:54
  TRACK 71 AUDIO
    TITLE "0:"
    INDEX 01 01:39:00
  TRACK 72 AUDIO
    TITLE "4:cjc115_2397"
    INDEX 01 01:39:08
  TRACK 73 AUDIO
    TITLE "0:"
    INDEX 01 01:43:51
